<svg xmlns="http://www.w3.org/2000/svg" width="345" height="91" viewBox="0 0 345 91">
  <g id="Group_33" data-name="Group 33" transform="translate(-617 -435)">
    <text id="extolOCR_" data-name="extolOCR " transform="translate(675 497)" fill="#26009c" font-size="56" font-family="Poppins-Regular, Poppins" letter-spacing="0.04em"><tspan x="0" y="0">extol</tspan><tspan y="0" fill="#4db151">OCR </tspan></text>
    <rect id="Rectangle_63" data-name="Rectangle 63" width="41" height="6" rx="3" transform="translate(617 454)" fill="#4db151"/>
    <rect id="Rectangle_68" data-name="Rectangle 68" width="14" height="6" rx="3" transform="translate(655.172 452.929) rotate(45)" fill="#26009c"/>
    <rect id="Rectangle_64" data-name="Rectangle 64" width="21" height="6" rx="3" transform="translate(617 477)" fill="#4db151"/>
    <path id="Union_5" data-name="Union 5" d="M2.121,22.274a3,3,0,0,1,0-4.243L7.955,12.2,2.121,6.364A3,3,0,0,1,6.364,2.121L14.143,9.9a2.994,2.994,0,0,1,.873,2.3,2.991,2.991,0,0,1-.874,2.3L6.364,22.274a3,3,0,0,1-4.243,0Z" transform="translate(629.368 467.868)" fill="#4db151"/>
    <path id="Rectangle_65" data-name="Rectangle 65" d="M3,0H26a3,3,0,0,1,3,3V6a0,0,0,0,1,0,0H3A3,3,0,0,1,0,3V3A3,3,0,0,1,3,0Z" transform="translate(623 454) rotate(90)" fill="#4db151"/>
    <rect id="Rectangle_66" data-name="Rectangle 66" width="17" height="6" rx="3" transform="translate(623 493) rotate(90)" fill="#4db151"/>
    <rect id="Rectangle_67" data-name="Rectangle 67" width="45" height="6" rx="3" transform="translate(619 504)" fill="#4db151"/>
    <rect id="Rectangle_69" data-name="Rectangle 69" width="50" height="6" rx="3" transform="translate(664 460) rotate(90)" fill="#26009c"/>
  </g>
</svg>
