<svg xmlns="http://www.w3.org/2000/svg" width="500" height="372.56" viewBox="0 0 500 372.56">
  <g id="Relaxing_at_home-rafiki" data-name="Relaxing at home-rafiki" transform="translate(0 -55)">
    <g id="freepik--background-complete--inject-2">
      <rect id="Rectangle_8375" data-name="Rectangle 8375" width="500" height="0.25" transform="translate(0 382.4)" fill="#ebebeb"/>
      <rect id="Rectangle_8376" data-name="Rectangle 8376" width="33.12" height="0.25" transform="translate(416.78 398.49)" fill="#ebebeb"/>
      <rect id="Rectangle_8377" data-name="Rectangle 8377" width="8.69" height="0.25" transform="translate(322.53 401.21)" fill="#ebebeb"/>
      <rect id="Rectangle_8378" data-name="Rectangle 8378" width="19.19" height="0.25" transform="translate(396.59 389.21)" fill="#ebebeb"/>
      <rect id="Rectangle_8379" data-name="Rectangle 8379" width="43.19" height="0.25" transform="translate(52.46 390.89)" fill="#ebebeb"/>
      <rect id="Rectangle_8380" data-name="Rectangle 8380" width="6.33" height="0.25" transform="translate(104.56 390.89)" fill="#ebebeb"/>
      <rect id="Rectangle_8381" data-name="Rectangle 8381" width="93.68" height="0.25" transform="translate(131.47 395.11)" fill="#ebebeb"/>
      <path id="Path_9754" data-name="Path 9754" d="M237,337.8H43.91a5.71,5.71,0,0,1-5.7-5.71V60.66A5.71,5.71,0,0,1,43.91,55H237a5.71,5.71,0,0,1,5.71,5.71V332.09A5.71,5.71,0,0,1,237,337.8ZM43.91,55.2a5.46,5.46,0,0,0-5.45,5.46V332.09a5.46,5.46,0,0,0,5.45,5.46H237a5.47,5.47,0,0,0,5.46-5.46V60.66A5.47,5.47,0,0,0,237,55.2Z" fill="#ebebeb"/>
      <path id="Path_9755" data-name="Path 9755" d="M453.31,337.8H260.21a5.72,5.72,0,0,1-5.71-5.71V60.66A5.72,5.72,0,0,1,260.21,55h193.1A5.71,5.71,0,0,1,459,60.66V332.09A5.71,5.71,0,0,1,453.31,337.8ZM260.21,55.2a5.47,5.47,0,0,0-5.46,5.46V332.09a5.47,5.47,0,0,0,5.46,5.46h193.1a5.47,5.47,0,0,0,5.46-5.46V60.66a5.47,5.47,0,0,0-5.46-5.46Z" fill="#ebebeb"/>
      <rect id="Rectangle_8382" data-name="Rectangle 8382" width="30.54" height="131.1" transform="translate(94.53 382.4) rotate(180)" fill="#e6e6e6"/>
      <path id="Path_9756" data-name="Path 9756" d="M69.8,382.4H63.99V365.9H75.88Z" fill="#f0f0f0"/>
      <rect id="Rectangle_8383" data-name="Rectangle 8383" width="30.54" height="131.1" transform="translate(248.03 382.4) rotate(180)" fill="#e6e6e6"/>
      <rect id="Rectangle_8384" data-name="Rectangle 8384" width="158.56" height="122.97" transform="translate(222.55 374.28) rotate(180)" fill="#f0f0f0"/>
      <path id="Path_9757" data-name="Path 9757" d="M68.49,256.12h72.84v95.53H68.49Z" fill="#e6e6e6"/>
      <path id="Path_9758" data-name="Path 9758" d="M145.22,256.12h72.83v95.53H145.22Z" fill="#e6e6e6"/>
      <path id="Path_9759" data-name="Path 9759" d="M161.51,268.43a5.16,5.16,0,1,1-5.15-5.16,5.16,5.16,0,0,1,5.15,5.16Z" fill="#fafafa"/>
      <path id="Path_9760" data-name="Path 9760" d="M135.35,268.43a5.16,5.16,0,1,1-5.16-5.16A5.16,5.16,0,0,1,135.35,268.43Z" fill="#fafafa"/>
      <path id="Path_9761" data-name="Path 9761" d="M216.75,382.4h5.8V365.9H210.67Z" fill="#f0f0f0"/>
      <rect id="Rectangle_8385" data-name="Rectangle 8385" width="26.47" height="157.44" transform="translate(310.95 382.4) rotate(180)" fill="#e6e6e6"/>
      <path id="Path_9762" data-name="Path 9762" d="M289.51,382.4h-5.03V368.1h10.3Z" fill="#f0f0f0"/>
      <rect id="Rectangle_8386" data-name="Rectangle 8386" width="26.47" height="157.44" transform="translate(443.98 382.4) rotate(180)" fill="#e6e6e6"/>
      <rect id="Rectangle_8387" data-name="Rectangle 8387" width="137.42" height="148.67" transform="translate(421.91 373.62) rotate(180)" fill="#f0f0f0"/>
      <path id="Path_9763" data-name="Path 9763" d="M288.38,228.86H418V257H288.38Z" fill="#e6e6e6"/>
      <path id="Path_9764" data-name="Path 9764" d="M288.38,260.25h63.13v95.5H288.38Z" fill="#e6e6e6"/>
      <path id="Path_9765" data-name="Path 9765" d="M354.88,260.25H418v95.5H354.88Z" fill="#e6e6e6"/>
      <path id="Path_9766" data-name="Path 9766" d="M369,305.75a4.47,4.47,0,1,1-4.47-4.47A4.47,4.47,0,0,1,369,305.75Z" fill="#fafafa"/>
      <path id="Path_9767" data-name="Path 9767" d="M346.32,305.75a4.47,4.47,0,1,1-4.46-4.47A4.47,4.47,0,0,1,346.32,305.75Z" fill="#fafafa"/>
      <path id="Path_9768" data-name="Path 9768" d="M416.88,382.4h5.02V368.1H411.6Z" fill="#f0f0f0"/>
      <path id="Path_9769" data-name="Path 9769" d="M357.07,243.14a4.47,4.47,0,1,1-4.47-4.46,4.47,4.47,0,0,1,4.47,4.46Z" fill="#fafafa"/>
      <path id="Path_9770" data-name="Path 9770" d="M193.13,122.99H189.1l-13.81-6.56h16.49Z" fill="#e6e6e6"/>
      <path id="Path_9771" data-name="Path 9771" d="M190.79,122.99h-4.03l-13.81-6.56h4.04Z" fill="#f5f5f5"/>
      <path id="Path_9772" data-name="Path 9772" d="M95.36,122.99H91.33l-13.82-6.56h16.5Z" fill="#e6e6e6"/>
      <path id="Path_9773" data-name="Path 9773" d="M93.02,122.99H88.99l-13.81-6.56h4.03Z" fill="#f5f5f5"/>
      <rect id="Rectangle_8388" data-name="Rectangle 8388" width="26.87" height="6.28" transform="translate(176.22 110.15)" fill="#e6e6e6"/>
      <rect id="Rectangle_8389" data-name="Rectangle 8389" width="111.22" height="6.28" transform="translate(176.22 116.43) rotate(180)" fill="#f5f5f5"/>
      <path id="Path_9774" data-name="Path 9774" d="M193.13,178.99H189.1l-13.81-6.56h16.49Z" fill="#e6e6e6"/>
      <path id="Path_9775" data-name="Path 9775" d="M190.79,178.99h-4.03l-13.81-6.56h4.04Z" fill="#f5f5f5"/>
      <path id="Path_9776" data-name="Path 9776" d="M95.36,178.99H91.33l-13.82-6.56h16.5Z" fill="#e6e6e6"/>
      <path id="Path_9777" data-name="Path 9777" d="M93.02,178.99H88.99l-13.81-6.56h4.03Z" fill="#f5f5f5"/>
      <rect id="Rectangle_8390" data-name="Rectangle 8390" width="26.87" height="6.28" transform="translate(176.22 166.15)" fill="#e6e6e6"/>
      <rect id="Rectangle_8391" data-name="Rectangle 8391" width="111.22" height="6.28" transform="translate(176.22 172.43) rotate(180)" fill="#f5f5f5"/>
      <rect id="Rectangle_8392" data-name="Rectangle 8392" width="31.31" height="33.33" transform="translate(96.89 132.82)" fill="#e0e0e0"/>
      <rect id="Rectangle_8393" data-name="Rectangle 8393" width="8.02" height="33.33" transform="translate(96.89 166.15) rotate(180)" fill="#f0f0f0"/>
      <rect id="Rectangle_8394" data-name="Rectangle 8394" width="23.52" height="38.47" transform="translate(112.89 127.68)" fill="#e6e6e6"/>
      <rect id="Rectangle_8395" data-name="Rectangle 8395" width="6.8" height="38.47" transform="translate(112.9 166.15) rotate(180)" fill="#f0f0f0"/>
      <rect id="Rectangle_8396" data-name="Rectangle 8396" width="19.83" height="33.33" transform="translate(119.82 132.82)" fill="#f0f0f0"/>
      <rect id="Rectangle_8397" data-name="Rectangle 8397" width="4.53" height="33.33" transform="translate(119.82 166.15) rotate(180)" fill="#fafafa"/>
      <rect id="Rectangle_8398" data-name="Rectangle 8398" width="26.01" height="27.69" transform="translate(136.05 138.46)" fill="#e6e6e6"/>
      <rect id="Rectangle_8399" data-name="Rectangle 8399" width="6.66" height="27.69" transform="translate(136.05 166.15) rotate(180)" fill="#fafafa"/>
      <rect id="Rectangle_8400" data-name="Rectangle 8400" width="19.54" height="31.96" transform="translate(149.34 134.19)" fill="#e6e6e6"/>
      <rect id="Rectangle_8401" data-name="Rectangle 8401" width="5.65" height="31.96" transform="translate(149.35 166.15) rotate(180)" fill="#f0f0f0"/>
      <rect id="Rectangle_8402" data-name="Rectangle 8402" width="18.98" height="27.69" transform="translate(155.1 138.46)" fill="#f0f0f0"/>
      <rect id="Rectangle_8403" data-name="Rectangle 8403" width="3.76" height="27.69" transform="translate(155.09 166.15) rotate(180)" fill="#fafafa"/>
      <path id="Path_9778" data-name="Path 9778" d="M358.65,101.32c-6.94.91-13.33,6.19-11.16,13.35,3.6,11.86-13.68,10.75-14.11,29.29-.62,26.18,26,8.74,24.2,33.61-1.33,18.1,24,35.22,31.73,12.6,8.47-24.77,16.05-6,26.84-33.22,7.46-18.85-18.59-27-8.83-31.45,7.13-3.22,12.81-10.17,6.15-17-9.07-9.37,3-12.82-3.07-19.32s-9.67,1.19-20.3-5c-9.51-5.56-21.48,3.23-21.3,10.26C369,100.92,365.63,100.4,358.65,101.32Z" fill="#e6e6e6"/>
      <path id="Path_9779" data-name="Path 9779" d="M345,182.4s.86,42.85,33.62,42.85,33.61-42.85,33.61-42.85Z" fill="#f0f0f0"/>
      <rect id="Rectangle_8404" data-name="Rectangle 8404" width="35.33" height="14.9" transform="translate(78.67 95.25)" fill="#f0f0f0"/>
      <rect id="Rectangle_8405" data-name="Rectangle 8405" width="36.49" height="4.5" transform="translate(77.51 90.75)" fill="#f0f0f0"/>
      <rect id="Rectangle_8406" data-name="Rectangle 8406" width="10.83" height="4.5" transform="translate(124.83 95.25) rotate(180)" fill="#ebebeb"/>
      <rect id="Rectangle_8407" data-name="Rectangle 8407" width="9.89" height="14.9" transform="translate(123.89 110.15) rotate(180)" fill="#ebebeb"/>
      <rect id="Rectangle_8408" data-name="Rectangle 8408" width="45.22" height="1.39" transform="translate(78.67 95.25)" fill="#e0e0e0" opacity="0.7"/>
      <rect id="Rectangle_8409" data-name="Rectangle 8409" width="55.78" height="35.55" transform="translate(118.62 74.6)" fill="#f0f0f0"/>
      <rect id="Rectangle_8410" data-name="Rectangle 8410" width="57.59" height="2.78" transform="translate(116.8 71.82)" fill="#f0f0f0"/>
      <rect id="Rectangle_8411" data-name="Rectangle 8411" width="17.1" height="2.78" transform="translate(191.5 74.59) rotate(180)" fill="#ebebeb"/>
      <rect id="Rectangle_8412" data-name="Rectangle 8412" width="15.61" height="35.55" transform="translate(190.01 110.14) rotate(180)" fill="#ebebeb"/>
      <rect id="Rectangle_8413" data-name="Rectangle 8413" width="71.39" height="1.62" transform="translate(118.62 74.6)" fill="#e0e0e0" opacity="0.7"/>
    </g>
    <g id="freepik--Shadow--inject-2">
      <ellipse id="freepik--path--inject-2" cx="193.89" cy="11.32" rx="193.89" ry="11.32" transform="translate(56.11 404.92)" fill="#f5f5f5"/>
    </g>
    <g id="freepik--Lamp--inject-2">
      <path id="Path_9780" data-name="Path 9780" d="M343.44,273.15a.34.34,0,0,1-.23-.08.37.37,0,0,1-.06-.52c7.14-9.11,6.48-19.44,5.65-32.51-.29-4.56-.59-9.28-.62-14.48-.05-9,3.52-23.55,7-37.64,4.32-17.64,8.78-35.89,5-39.89-6.71-7.14-29.49,1.17-41.62,9.8-9.94,7.08-17.79,5.7-32.05,3.18-3.73-.66-8-1.4-12.78-2.08-19-2.69-21.06.29-23.92,4.41-.55.79-1.13,1.61-1.85,2.46a.37.37,0,0,1-.53,0,.39.39,0,0,1,0-.53,27.271,27.271,0,0,0,1.8-2.4c3-4.34,5.19-7.48,24.65-4.73,4.82.69,9.06,1.43,12.8,2.09,14.06,2.48,21.8,3.85,31.49-3.05,12.63-9,35.51-17.24,42.6-9.7,4,4.29-.28,21.92-4.85,40.58-3.43,14-7,28.56-6.94,37.46,0,5.18.33,9.88.62,14.43.84,13.24,1.5,23.69-5.81,33a.39.39,0,0,1-.35.2Z" fill="#263238"/>
      <circle id="Ellipse_974" data-name="Ellipse 974" cx="8.99" cy="8.99" r="8.99" transform="translate(230.009 186.444) rotate(-45)" fill="#fff"/>
      <circle id="Ellipse_975" data-name="Ellipse 975" cx="8.99" cy="8.99" r="8.99" transform="translate(230.009 186.444) rotate(-45)" fill="#407bff" opacity="0.3"/>
      <path id="Path_9781" data-name="Path 9781" d="M248.66,164.63A11.74,11.74,0,0,0,226,170.56l4.76,23.83,25.45-6.64Z" fill="#4db151"/>
      <path id="Path_9782" data-name="Path 9782" d="M253,166.67a6.66,6.66,0,1,1-1.951-4.719A6.67,6.67,0,0,1,253,166.67Z" fill="#263238"/>
      <path id="Path_9783" data-name="Path 9783" d="M246.33,172.54a5.87,5.87,0,1,1,4.157-1.716,5.88,5.88,0,0,1-4.157,1.716Zm0-10.75a4.88,4.88,0,1,0,4.88,4.88A4.88,4.88,0,0,0,246.33,161.79Z" fill="#407bff"/>
      <path id="Path_9784" data-name="Path 9784" d="M246.33,167.67a1,1,0,0,1-.16-1.99l136.55-20.89a1.011,1.011,0,0,1,.3,2L246.48,167.65Z" fill="#263238"/>
      <path id="Path_9785" data-name="Path 9785" d="M326.88,402.69h-.14a1,1,0,0,1-.86-1.13l37.19-275.24a1,1,0,0,1,1.98.27L327.87,401.82A1,1,0,0,1,326.88,402.69Z" fill="#263238"/>
      <path id="Path_9786" data-name="Path 9786" d="M365.06,149.13a4.06,4.06,0,1,1-4.06-4.06A4.06,4.06,0,0,1,365.06,149.13Z" fill="#263238"/>
    </g>
    <g id="freepik--Sofa--inject-2">
      <rect id="Rectangle_8414" data-name="Rectangle 8414" width="251.76" height="52.04" transform="translate(375.88 409.18) rotate(180)" fill="#407bff"/>
      <rect id="Rectangle_8415" data-name="Rectangle 8415" width="251.76" height="52.04" transform="translate(375.88 409.18) rotate(180)" fill="#fff" opacity="0.1"/>
      <path id="Path_9787" data-name="Path 9787" d="M124.12,334.26H375.88l3.82-39.11a38.47,38.47,0,0,0-38.29-42.21H158.59a38.47,38.47,0,0,0-38.29,42.21Z" fill="#407bff"/>
      <path id="Path_9788" data-name="Path 9788" d="M124.12,334.26H375.88l3.82-39.11a38.47,38.47,0,0,0-38.29-42.21H158.59a38.47,38.47,0,0,0-38.29,42.21Z" opacity="0.3"/>
      <rect id="Rectangle_8416" data-name="Rectangle 8416" width="251.76" height="2.95" transform="translate(375.88 360.09) rotate(180)" fill="#407bff" opacity="0.9"/>
      <rect id="Rectangle_8417" data-name="Rectangle 8417" width="251.76" height="27.47" transform="translate(375.88 357.14) rotate(180)" fill="#407bff"/>
      <rect id="Rectangle_8418" data-name="Rectangle 8418" width="251.76" height="27.47" transform="translate(375.88 357.14) rotate(180)" opacity="0.2"/>
      <path id="Path_9789" data-name="Path 9789" d="M379.4,286.77h0a25.6,25.6,0,0,0-25.55,27.17l5,81.89a9.47,9.47,0,0,0,9.46,8.9h22.12a9.49,9.49,0,0,0,9.47-8.9l5-81.892a25.6,25.6,0,0,0-25.5-27.17Z" fill="#407bff"/>
      <circle id="Ellipse_976" data-name="Ellipse 976" cx="20.2" cy="20.2" r="20.2" transform="translate(352.965 324.634) rotate(-67.2)" fill="#26009c"/>
      <path id="Path_9790" data-name="Path 9790" d="M374.75,413.63h9.3l1.45-8.9H373.3Z" fill="#263238"/>
      <path id="Path_9791" data-name="Path 9791" d="M115.46,413.63h9.3l1.45-8.9h-12.2Z" fill="#263238"/>
      <path id="Path_9792" data-name="Path 9792" d="M120.6,286.77h0a25.6,25.6,0,0,0-25.55,27.17l5,81.89a9.49,9.49,0,0,0,9.47,8.9h22.12a9.47,9.47,0,0,0,9.46-8.9l5-81.89a25.6,25.6,0,0,0-25.5-27.17Z" fill="#407bff"/>
      <circle id="Ellipse_977" data-name="Ellipse 977" cx="20.2" cy="20.2" r="20.2" transform="translate(94.145 324.621) rotate(-67.2)" fill="#26009c"/>
    </g>
    <g id="freepik--Character--inject-2">
      <path id="Path_9793" data-name="Path 9793" d="M180,227.94c1.35.84,2.93,1.78,4.41,2.66s3,1.78,4.56,2.64c3.05,1.74,6.14,3.38,9.24,5s6.23,3,9.37,4.29a68.754,68.754,0,0,0,9.32,3.1l-1.24-.12c2.82.1,6.05.07,9.21,0l9.6-.25c6.43-.16,12.92-.33,19.4-.27l.9,7.23c-3.18.83-6.37,1.53-9.57,2.2s-6.4,1.28-9.62,1.85-6.47,1.09-9.74,1.52-6.53.85-10.18,1h-.41l-.84-.14a70.3,70.3,0,0,1-11.7-3,113.656,113.656,0,0,1-10.78-4.31c-3.5-1.58-6.88-3.33-10.21-5.16-1.65-.92-3.3-1.86-4.92-2.85s-3.19-2-4.9-3.12Z" fill="#ffc3bd"/>
      <path id="Path_9794" data-name="Path 9794" d="M167,230.34c-1.59-6.44,7.18-6.89,32.46,4.81l-5.56,20.28S171.83,250,167,230.34Z" fill="#407bff"/>
      <path id="Path_9795" data-name="Path 9795" d="M177.15,236.35c-2.13,0-4.17,1.5-5.87,3.61,6.58,9.72,17.52,13.89,21.29,15.08h.13l.28.07C189.11,241.88,183,236.45,177.15,236.35Z" opacity="0.2"/>
      <path id="Path_9796" data-name="Path 9796" d="M278.04,325.1l10.38-1.64-2.73-26.47-10.38,1.64Z" fill="#ffc3bd"/>
      <path id="Path_9797" data-name="Path 9797" d="M288.89,317.5l-12.38.18a.9.9,0,0,0-.85.81l-1.59,10.31a1.72,1.72,0,0,0,1.62,2c4.08-.14,8.41-.45,13.55-.52,3.16-.05,10.95.18,15.32.12s4.72-4.88,2.91-5.29c-8.11-1.83-14.17-4.43-16.86-7a2.44,2.44,0,0,0-1.72-.61Z" fill="#263238"/>
      <path id="Path_9798" data-name="Path 9798" d="M202.22,295s38-43.78,57.89-39.56c22.81,4.85,31.89,53.33,31.89,53.33l-17.66,2s-9.23-21.68-19.76-29.62C233,316,177.79,341.76,171,305.8,180.07,302.15,202.22,295,202.22,295Z" fill="#263238"/>
      <path id="Path_9799" data-name="Path 9799" d="M293.71,309.08l-22.03,4.31-1.66-7.27L293,301.15Z" fill="#263238"/>
      <path id="Path_9800" data-name="Path 9800" d="M251.47,245.19l8.5-1.63,3.55,10.13s-8.5,2.82-12.63-2.53Z" fill="#ffc3bd"/>
      <path id="Path_9801" data-name="Path 9801" d="M269.78,245.6l2.19,7.34-8.45.75-3.55-10.13Z" fill="#ffc3bd"/>
      <path id="Path_9802" data-name="Path 9802" d="M155.69,308.4S139.13,284,131,244.68a15.55,15.55,0,0,1,14.43-18.62c8-.42,16.44-.53,23.3-.5a15.47,15.47,0,0,1,14.82,11.21c3.73,13.08,6.08,30.21,20.7,54.53,2.35,3.9-.53,8.95-5,9.71Z" fill="#407bff"/>
      <path id="Path_9803" data-name="Path 9803" d="M130.79,239.9c5.59-7.8,10.58-8.9,12-8.46,12.92,4.08-1,39.68-3.1,43.65A214.366,214.366,0,0,1,131,244.57,15.11,15.11,0,0,1,130.79,239.9Z" opacity="0.2"/>
      <path id="Path_9804" data-name="Path 9804" d="M195.89,311.44c-.35,1.27.64,5.4,6.66,10.08,8.17-2.23,17-6.67,25.31-12.56C215.67,305.52,198.34,302.59,195.89,311.44Z" opacity="0.2"/>
      <path id="Path_9805" data-name="Path 9805" d="M145.33,201c2.6,7.08,5.93,19.87,1.9,25a25.23,25.23,0,0,0,18,6.13c8.3-.27,6.61-3.59,3.89-6.53-8.07-1.37-8.9-8.17-8.52-13.83Z" fill="#ffc3bd"/>
      <path id="Path_9806" data-name="Path 9806" d="M151.55,205.37l9,6.36a24.26,24.26,0,0,0,0,4c-3.06,1.06-8.05-1.76-8.92-4.94A18.39,18.39,0,0,1,151.55,205.37Z" opacity="0.2"/>
      <path id="Path_9807" data-name="Path 9807" d="M162,193.22c1.62,3.1,4.68,4.69,6.84,3.57s2.59-4.55,1-7.65-4.68-4.69-6.84-3.56S160.36,190.13,162,193.22Z" fill="#407bff"/>
      <path id="Path_9808" data-name="Path 9808" d="M159.88,194.32c1.72,3.29,5,5,7.27,3.79s2.75-4.84,1-8.13-5-5-7.27-3.79S158.16,191,159.88,194.32Z" fill="#fff"/>
      <path id="Path_9809" data-name="Path 9809" d="M162.41,191.48l4.11-1.2s-2.77-4.51-2.53-8.18.94-6.49-6.2-6.33S146.68,183,162.41,191.48Z" fill="#263238"/>
      <path id="Path_9810" data-name="Path 9810" d="M139.66,197.74c5,8.27,7.48,13.35,14.18,15.69a12.47,12.47,0,0,0,16.47-14.81c-2.12-8.51-9.92-20.61-20.25-20.07S134.68,189.47,139.66,197.74Z" fill="#ffc3bd"/>
      <path id="Path_9811" data-name="Path 9811" d="M138.83,189.94c7.82-1.24,21.24-5.94,19.51-15.27-1.17-6.27-10.94-4.34-13-1.17a39.74,39.74,0,0,1-11.91,10.67C128.67,186.83,127.16,191.8,138.83,189.94Z" fill="#263238"/>
      <path id="Path_9812" data-name="Path 9812" d="M142.72,204.22l3.93-1.7s-3.32-4.13-3.54-7.8.11-6.56-6.94-5.5S126.06,197.83,142.72,204.22Z" fill="#263238"/>
      <path id="Path_9813" data-name="Path 9813" d="M141.67,200.13a.47.47,0,0,1-.35-.15c-5.37-5.28-6.2-10.4-6.21-13,0-2.42.66-4.6,1.75-5.7a.5.5,0,1,1,.71.7,7.35,7.35,0,0,0-1.46,5c0,2.42.8,7.24,5.91,12.27a.5.5,0,0,1,0,.71.47.47,0,0,1-.35.17Z" fill="#407bff"/>
      <path id="Path_9814" data-name="Path 9814" d="M139.88,208.16a8.71,8.71,0,0,0,6.24,1.4c2.86-.48,3-3.25,1-5.24-1.72-1.8-5.29-3.7-7.62-2.2S137.64,206.63,139.88,208.16Z" fill="#ffc3bd"/>
      <path id="Path_9815" data-name="Path 9815" d="M146.53,201.85c2.34,2.89,2.61,6.55.6,8.18s-5.53.61-7.87-2.28-2.61-6.54-.6-8.17S144.2,199,146.53,201.85Z" fill="#fff"/>
      <path id="Path_9816" data-name="Path 9816" d="M144.69,203.35c2.2,2.71,2.45,6.15.56,7.68s-5.2.58-7.4-2.14-2.45-6.15-.56-7.68S142.49,200.63,144.69,203.35Z" fill="#407bff"/>
      <path id="Path_9817" data-name="Path 9817" d="M151.08,195.4h-.75a3.9,3.9,0,0,1,1.38-2.46,1.69,1.69,0,0,1,1.44-.43,1.51,1.51,0,0,1,1,.82l-.67.35a.77.77,0,0,0-.5-.44,1,1,0,0,0-.82.29A3.28,3.28,0,0,0,151.08,195.4Z" fill="#263238"/>
      <path id="Path_9818" data-name="Path 9818" d="M159.81,190.08a1.25,1.25,0,0,1,0-1.09,1.63,1.63,0,0,1,1.11-.79,2.26,2.26,0,0,1,2.16.57l-.52.54a1.48,1.48,0,0,0-1.45-.38.89.89,0,0,0-.63.4.55.55,0,0,0,0,.47Z" fill="#263238"/>
      <path id="Path_9819" data-name="Path 9819" d="M158.25,192.11s3.71,3.26,6.5,4.37c-.66,1.73-3.07,2.19-3.07,2.19Z" fill="#ed847e"/>
      <path id="Path_9820" data-name="Path 9820" d="M159.67,203.36a6.91,6.91,0,0,1-5.21-.42.225.225,0,1,1,.24-.38,6.63,6.63,0,0,0,5.72,0,.24.24,0,0,1,.31.11.22.22,0,0,1-.1.3,7.13,7.13,0,0,1-.96.39Z" fill="#263238"/>
      <path id="Path_9821" data-name="Path 9821" d="M147.28,193.63a.65.65,0,0,1-.24,0,.46.46,0,0,1-.38-.54,4.33,4.33,0,0,1,2.52-3.24.49.49,0,0,1,.62.25.44.44,0,0,1-.25.59h0a3.46,3.46,0,0,0-2,2.59A.45.45,0,0,1,147.28,193.63Z" fill="#263238"/>
      <path id="Path_9822" data-name="Path 9822" d="M163.05,186.25a.49.49,0,0,1-.44,0,3.85,3.85,0,0,0-3.39-.16.48.48,0,0,1-.64-.18.43.43,0,0,1,.16-.61,4.83,4.83,0,0,1,4.28.15.44.44,0,0,1,.21.61A.41.41,0,0,1,163.05,186.25Z" fill="#263238"/>
      <path id="Path_9823" data-name="Path 9823" d="M275.49,413.17l8.88-5.4-12.54-23.81-8.88,5.4Z" fill="#ffc3bd"/>
      <path id="Path_9824" data-name="Path 9824" d="M280.76,400.39l-10.34,5.17a.84.84,0,0,0-.34,1.06l3.31,9.84a1.71,1.71,0,0,0,2.24,1.18c3.29-1.73,5.59-3.18,9.78-5.27,2.58-1.29,10.53-4.86,14.09-6.64s1.7-6.22,0-5.87c-7.48,1.56-13.71,1.67-17,.47a2.17,2.17,0,0,0-1.74.06Z" fill="#263238"/>
      <path id="Path_9825" data-name="Path 9825" d="M194.21,301.87s19.32,2.66,47.46,21.13c19.49,12.8,36.5,65.33,36.5,65.33l-15.24,10.41S243.56,356.57,227.34,341c-53.3-12.69-69,3.9-71.65-32.59C165.11,305.79,194.21,301.87,194.21,301.87Z" fill="#263238"/>
      <path id="Path_9826" data-name="Path 9826" d="M281.83,390.64l-20.07,10.07-3.55-6.56,20.81-10.95Z" fill="#263238"/>
      <path id="Path_9827" data-name="Path 9827" d="M144.32,243.83c-1.95,6.31-4,12.82-5.71,19.19-.88,3.19-1.68,6.39-2.36,9.5-.32,1.55-.61,3.09-.81,4.54a24.158,24.158,0,0,0-.31,3.75v.36h0a.946.946,0,0,0-.15-.33c-.06-.11-.21-.38-.3-.51-.36-.48-.44-.46-.43-.44a2.813,2.813,0,0,0,.36.32,23.543,23.543,0,0,0,3.49,2c2.77,1.34,5.84,2.63,8.94,3.83,6.21,2.44,12.67,4.7,19,7.09l-1.6,7.11a167.357,167.357,0,0,1-20.75-3.49,95.245,95.245,0,0,1-10.46-3,34.075,34.075,0,0,1-5.7-2.58,18.1,18.1,0,0,1-1.72-1.19,10.76,10.76,0,0,1-2.19-2.31,9.363,9.363,0,0,1-.62-1.06c-.1-.21-.2-.43-.28-.63l-.13-.34c-.18-.47-.29-.87-.41-1.28a17.128,17.128,0,0,1-.39-2.13,32.771,32.771,0,0,1-.08-6.53c.15-2,.39-3.81.66-5.63.55-3.65,1.3-7.14,2.1-10.6a205.768,205.768,0,0,1,5.94-20.3Z" fill="#ffc3bd"/>
      <path id="Path_9828" data-name="Path 9828" d="M141.81,226.69c-2,.54-11.07,1.9-17.51,24.07l21.79,8.5S161.18,221.51,141.81,226.69Z" fill="#407bff"/>
      <path id="Path_9829" data-name="Path 9829" d="M165.79,292.9l7.65,3.81-7,8.45s-8-5.14-6.54-9.49l2.9-2.42a2.77,2.77,0,0,1,2.99-.35Z" fill="#ffc3bd"/>
      <path id="Path_9830" data-name="Path 9830" d="M180.35,304.4l-7.64,6.24-6.31-5.48,7.04-8.45Z" fill="#ffc3bd"/>
    </g>
  </g>
</svg>
